<svg width="421" height="122" viewBox="0 0 421 122" fill="none" xmlns="http://www.w3.org/2000/svg">
<g clip-path="url(#clip0_1126_46)" filter="url(#filter0_d_1126_46)">
<path d="M77.0255 76.4783C77.2771 77.0295 77.563 77.5644 77.8814 78.0799C78.2652 78.6912 78.6935 79.2733 79.1627 79.8217C80.4031 81.2657 81.9285 82.4379 83.6432 83.2647C85.3579 84.0916 87.2249 84.5553 89.1272 84.6267C91.0295 84.6981 92.926 84.3758 94.6979 83.6798C96.4697 82.9839 98.0787 81.9294 99.4239 80.5825C100.71 79.2918 101.73 77.7614 102.427 76.0779C103.3 73.9751 103.64 71.6894 103.417 69.4236C103.194 67.1579 102.415 64.9822 101.149 63.0897C99.8838 61.1973 98.1705 59.6465 96.1616 58.5752C94.1527 57.5038 91.9104 56.945 89.6337 56.9483C85.5194 56.9483 82.4362 58.6851 79.8134 61.3828C77.1907 64.0806 74.9333 67.8895 72.6159 71.8085C70.1133 76.0178 67.5156 80.4674 64.0019 83.8859C60.4882 87.3044 56.0236 89.7319 49.9872 89.7319C47.4984 89.7345 45.0335 89.2455 42.7341 88.2929C40.4347 87.3404 38.3461 85.9431 36.5882 84.1812C34.1784 81.7737 32.4623 78.761 31.6205 75.4603C30.7788 72.1595 30.8426 68.6929 31.8053 65.4254C32.7679 62.1579 34.5938 59.2104 37.0906 56.8933C39.5874 54.5761 42.6629 52.975 45.9931 52.2585C46.2533 52.1984 46.5186 52.1484 46.7939 52.0983L47.2494 52.0282L47.3094 51.7179C47.3445 51.5578 47.3895 51.3425 47.4396 51.0923C48.3412 45.8567 51.0508 41.1032 55.0965 37.6597C59.1422 34.2162 64.2676 32.3008 69.5801 32.2472C74.8926 32.1937 80.0556 34.0052 84.1699 37.3664C88.2843 40.7276 91.0892 45.4255 92.0963 50.6418L92.3415 51.9432L93.6329 52.1984C95.7183 52.6159 97.713 53.4006 99.524 54.5158C101.363 55.6432 102.993 57.079 104.344 58.7601C107.1 62.1693 108.607 66.4188 108.614 70.8025C108.615 73.2905 108.126 75.7543 107.174 78.0528C106.221 80.3512 104.824 82.4389 103.063 84.1962C100.744 86.5103 97.8662 88.1851 94.7088 89.0578C91.5513 89.9305 88.2218 89.9713 85.0439 89.1763C83.534 88.8006 82.0776 88.2355 80.7094 87.4946C78.4099 86.2508 76.3909 84.547 74.7782 82.4895C74.5846 82.2425 74.3894 81.9823 74.1925 81.7087C74.0073 81.4484 73.8272 81.1731 73.647 80.8878C73.4668 80.6025 73.3767 80.4524 73.2516 80.2422C73.1264 80.0319 73.0013 79.7967 72.8812 79.5715L72.751 79.3262L72.8912 79.086L75.5239 74.6464L76.1045 73.6704L76.4299 74.7565C76.6042 75.3387 76.8166 75.9089 77.0655 76.4633L77.0255 76.4783ZM55.6782 45.0061C54.6181 46.5081 53.8069 48.1711 53.2757 49.9311L52.6751 51.9081L54.6771 52.4086C55.5396 52.6184 56.3859 52.8893 57.2098 53.2195C58.029 53.5511 58.8249 53.9373 59.5923 54.3757C60.0428 54.6359 60.4782 54.9162 60.8986 55.2065C61.3191 55.4968 61.7395 55.8121 62.145 56.1475L62.5203 56.4528L62.22 56.8332L60.8186 58.63L59.6924 60.1315L59.3821 60.542L58.9866 60.2166C58.3992 59.7417 57.7768 59.3117 57.1247 58.9303C56.484 58.5458 55.8146 58.2112 55.1226 57.9293C54.322 57.6144 53.4944 57.3731 52.65 57.2086C51.8255 57.0484 50.9874 56.9679 50.1474 56.9683H49.4817C45.9871 57.0887 42.6693 58.5347 40.202 61.0125C38.9146 62.2944 37.8939 63.8187 37.1989 65.4973C36.5039 67.176 36.1483 68.9757 36.1528 70.7925C36.1523 72.603 36.5093 74.3959 37.2033 76.0682C37.8973 77.7404 38.9147 79.2593 40.197 80.5375C41.4781 81.8211 42.9983 82.8414 44.6717 83.5405C46.3535 84.2411 48.1554 84.6083 49.9772 84.6216C54.2517 84.6517 57.4851 82.8949 60.1979 80.1521C62.9107 77.4093 65.2832 73.5553 67.7058 69.5662C69.838 66.0276 72.0703 62.3338 74.8082 59.2306C77.5461 56.1274 80.8445 53.5949 85.0239 52.4837L86.9709 51.9832L86.3803 50.0512C85.319 46.4719 83.1298 43.3312 80.1388 41.097C77.1674 38.8714 73.5571 37.6639 69.8446 37.654C66.1321 37.6441 62.5155 38.8323 59.5322 41.042C58.0468 42.1443 56.7459 43.4756 55.6782 44.986V45.0061Z" fill="url(#paint0_linear_1126_46)"/>
<path d="M220.02 82.9099H212.012V65.7423C212.012 60.3668 209.559 57.624 204.949 57.624C200.339 57.624 196.941 61.1876 196.941 66.5031V82.9099H189.013V51.4927H196.951V55.9973C198.763 52.789 202.382 50.6869 206.821 50.6869C214.995 50.6869 220.02 55.9973 220.02 65.1667V82.9099Z" fill="#f8f8f8"/>
<path d="M248.335 81.7988C246.523 82.97 243.484 83.7258 240.626 83.7258C232.858 83.7258 228.769 79.2913 228.769 70.6474V58.4449H222.057V51.4928H247.163V58.4449H236.712V70.5723C236.712 74.5464 238.404 76.6486 241.673 76.6486C243.387 76.6581 245.076 76.2346 246.583 75.4173L248.335 81.7988Z" fill="#f8f8f8"/>
<path d="M283.737 51.4928V82.91H275.728V78.4704C273.626 81.9189 269.887 83.7258 265.507 83.7258C256.748 83.7258 250.211 76.4884 250.211 67.2089C250.091 58.0395 256.808 50.5068 265.507 50.6919C269.887 50.6919 273.626 52.4437 275.728 55.8873V51.5078L283.737 51.4928ZM266.804 57.624C265.59 57.5924 264.384 57.8208 263.266 58.2939C262.148 58.767 261.144 59.4738 260.322 60.3669C258.66 62.2481 257.782 64.695 257.869 67.2039C257.869 72.6344 261.488 76.7787 266.804 76.7787C271.999 76.7787 275.738 72.9848 275.738 67.2039C275.738 61.4229 271.999 57.624 266.804 57.624Z" fill="#f8f8f8"/>
<path d="M299.028 82.9099H291.089V37.6686H299.028V82.9099Z" fill="#f8f8f8"/>
<path d="M314.329 82.91H306.385V51.4928H314.329V82.91Z" fill="#f8f8f8"/>
<path d="M352.629 82.9099H344.62V65.7423C344.62 60.3668 342.168 57.624 337.553 57.624C332.938 57.624 329.544 61.1876 329.544 66.5031V82.9099H321.621V51.4927H329.564V55.9973C331.371 52.789 334.995 50.6869 339.435 50.6869C347.608 50.6869 352.629 55.9973 352.629 65.1667V82.9099Z" fill="#f8f8f8"/>
<path d="M380.508 82.9099L367.494 68.7805V82.9099H359.541V37.6686H367.484V65.452L379.807 51.4927H389.207L375.132 67.1438L389.968 82.9099H380.508Z" fill="#f8f8f8"/>
<path d="M228.774 51.9182C229.809 51.9254 230.835 51.7287 231.794 51.3391C232.753 50.9496 233.626 50.3749 234.363 49.648C235.1 48.921 235.686 48.056 236.088 47.1023C236.49 46.1487 236.701 45.1251 236.707 44.0901V42.8539H228.774V51.9182Z" fill="#f8f8f8"/>
<path d="M306.39 46.7329C307.425 46.7401 308.452 46.5434 309.411 46.1539C310.37 45.7645 311.244 45.1899 311.981 44.463C312.718 43.736 313.305 42.8711 313.707 41.9174C314.11 40.9637 314.321 39.9401 314.329 38.9048V37.6686H306.39V46.7329Z" fill="#f8f8f8"/>
<path d="M168.541 57.6841C173.972 57.6841 177.691 61.8333 177.691 67.1938C177.762 69.7038 176.837 72.14 175.118 73.9707C173.376 75.6901 171.026 76.6541 168.579 76.6541C166.131 76.6541 163.782 75.6901 162.039 73.9707C160.437 72.2452 159.543 69.9792 159.537 67.6242C158.946 68.5051 158.35 69.4261 157.74 70.3771C156.634 72.1189 155.442 73.9507 154.126 75.7426C155.616 78.2295 157.738 80.2777 160.276 81.679C162.814 83.0803 165.678 83.7848 168.576 83.7207C178.211 83.7207 185.274 76.5984 185.274 67.2038C185.274 57.8092 178.171 50.6869 168.536 50.6869C149.772 50.6869 148.655 76.6785 135.502 76.6785C134.279 76.7255 133.061 76.5104 131.928 76.0477C130.795 75.585 129.775 74.8853 128.935 73.9958C127.236 72.1571 126.336 69.72 126.432 67.2188C126.432 61.8483 130.111 57.7091 135.482 57.7091C137.09 57.6726 138.676 58.0839 140.064 58.8971C141.451 59.7102 142.586 60.8932 143.34 62.3138L143.535 62.0135C144.791 60.0565 146.183 57.9193 147.779 55.8272C146.198 54.1658 144.288 52.852 142.17 51.9696C140.053 51.0872 137.775 50.6555 135.482 50.7019C126.082 50.5818 118.604 57.9393 118.779 67.2188C118.604 76.5033 126.107 83.8609 135.507 83.7358C154.486 83.7308 155.478 57.6841 168.541 57.6841Z" fill="#f8f8f8"/>
</g>
<defs>
<filter id="filter0_d_1126_46" x="-4" y="0" width="429" height="130" filterUnits="userSpaceOnUse" color-interpolation-filters="sRGB">
<feFlood flood-opacity="0" result="BackgroundImageFix"/>
<feColorMatrix in="SourceAlpha" type="matrix" values="0 0 0 0 0 0 0 0 0 0 0 0 0 0 0 0 0 0 127 0" result="hardAlpha"/>
<feOffset dy="4"/>
<feGaussianBlur stdDeviation="2"/>
<feComposite in2="hardAlpha" operator="out"/>
<feColorMatrix type="matrix" values="0 0 0 0 0 0 0 0 0 0 0 0 0 0 0 0 0 0 0.25 0"/>
<feBlend mode="normal" in2="BackgroundImageFix" result="effect1_dropShadow_1126_46"/>
<feBlend mode="normal" in="SourceGraphic" in2="effect1_dropShadow_1126_46" result="shape"/>
</filter>
<linearGradient id="paint0_linear_1126_46" x1="31.0324" y1="60.9974" x2="108.588" y2="60.9974" gradientUnits="userSpaceOnUse">
<stop stop-color="#11EFF9"/>
<stop offset="1" stop-color="#245FAC"/>
</linearGradient>
<clipPath id="clip0_1126_46">
<rect width="421" height="122" fill="white"/>
</clipPath>
</defs>
</svg>
